<?xml version="1.0" standalone="no"?>
<!DOCTYPE svg PUBLIC "-//W3C//DTD SVG 20010904//EN"
 "http://www.w3.org/TR/2001/REC-SVG-20010904/DTD/svg10.dtd">
<svg version="1.0" xmlns="http://www.w3.org/2000/svg"
 width="4560.000000pt" height="312.000000pt" viewBox="0 0 4560.000000 312.000000"
 preserveAspectRatio="xMidYMid meet">

<g transform="translate(0.000000,312.000000) scale(0.100000,-0.100000)"
fill="#000000" stroke="none">
<path d="M1260 3099 c-198 -42 -390 -122 -570 -240 -127 -84 -333 -289 -419
-419 -122 -183 -210 -397 -248 -600 -26 -144 -24 -431 5 -566 137 -636 611
-1111 1242 -1245 139 -30 437 -33 572 -6 99 20 234 58 291 82 l39 16 -300 198
-299 198 -104 11 c-261 28 -435 110 -623 291 -143 140 -229 279 -281 457 -107
369 -5 755 274 1035 257 257 634 355 1003 260 139 -36 280 -112 406 -219 l53
-45 183 179 183 179 -69 68 c-183 177 -484 325 -757 372 -130 23 -459 19 -581
-6z"/>
<path d="M2867 3058 c27 -35 300 -383 606 -775 306 -391 557 -714 557 -718 0
-6 -337 -438 -1077 -1382 l-143 -183 334 0 334 0 1204 1547 c661 850 1207
1552 1211 1560 7 11 -47 13 -320 13 l-328 0 -430 -552 c-236 -303 -435 -558
-441 -566 -8 -11 -103 106 -449 552 l-439 566 -334 0 -334 0 49 -62z"/>
<path d="M6590 2865 l254 -254 631 -3 630 -3 62 -26 c100 -42 169 -113 212
-216 79 -195 -12 -420 -206 -511 l-58 -27 -892 -3 -893 -3 0 -259 0 -260 868
0 c920 0 914 0 1008 -48 22 -11 66 -48 96 -81 130 -140 141 -341 28 -492 -49
-66 -95 -102 -169 -131 -56 -23 -58 -23 -683 -26 l-628 -3 0 -260 0 -260 663
3 662 4 88 27 c423 131 687 500 664 927 -12 216 -93 414 -225 551 l-44 47 55
65 c74 88 134 192 168 291 149 443 -49 921 -466 1122 -181 88 -125 84 -1164
84 l-916 0 255 -255z"/>
<path d="M9670 2865 l255 -255 782 0 783 0 0 255 0 255 -1037 0 -1038 0 255
-255z"/>
<path d="M11932 3112 c18 -44 258 -445 281 -469 l30 -32 571 -3 c551 -3 573
-4 633 -25 86 -29 151 -73 224 -151 221 -236 173 -597 -102 -781 -110 -74
-152 -81 -466 -81 -151 0 -273 -4 -271 -8 2 -5 205 -358 451 -785 l449 -777
299 0 300 0 -25 43 c-114 197 -616 1081 -614 1082 2 0 23 10 48 21 222 96 442
344 534 602 90 252 68 570 -54 812 -114 224 -347 431 -576 510 -142 50 -146
50 -955 50 -419 0 -759 -4 -757 -8z"/>
<path d="M16070 3099 c-198 -42 -390 -122 -570 -240 -127 -84 -333 -289 -419
-419 -122 -183 -210 -397 -248 -600 -26 -144 -24 -431 5 -566 137 -636 611
-1111 1242 -1245 139 -30 437 -33 572 -6 99 20 234 58 291 82 l39 16 -300 198
-299 198 -104 11 c-261 28 -435 110 -623 291 -143 140 -229 279 -281 457 -107
369 -5 755 274 1035 257 257 634 355 1003 260 139 -36 280 -112 406 -219 l53
-45 183 179 183 179 -69 68 c-183 177 -484 325 -757 372 -130 23 -459 19 -581
-6z"/>
<path d="M18850 3105 c-202 -38 -403 -121 -572 -237 -196 -134 -420 -383 -526
-586 -225 -433 -229 -982 -8 -1420 124 -246 387 -522 632 -662 465 -266 1065
-266 1530 0 185 106 401 303 526 480 206 292 302 652 269 1013 -31 347 -141
612 -364 876 -215 254 -494 432 -805 513 -113 30 -125 31 -362 34 -180 2 -265
-1 -320 -11z m407 -506 c438 -49 798 -371 899 -804 28 -119 26 -358 -4 -478
-95 -380 -405 -689 -770 -767 -370 -78 -721 21 -978 276 -78 78 -169 208 -209
298 -126 285 -120 639 16 910 126 253 367 454 634 531 145 41 263 51 412 34z"/>
<path d="M20892 3112 c18 -44 258 -445 281 -469 l30 -32 571 -3 c551 -3 573
-4 633 -25 86 -29 151 -73 224 -151 221 -236 173 -597 -102 -781 -110 -74
-152 -81 -466 -81 -151 0 -273 -4 -271 -8 2 -5 205 -358 451 -785 l449 -777
299 0 300 0 -25 43 c-114 197 -616 1081 -614 1082 2 0 23 10 48 21 222 96 442
344 534 602 90 252 68 570 -54 812 -114 224 -347 431 -576 510 -142 50 -146
50 -955 50 -419 0 -759 -4 -757 -8z"/>
<path d="M24049 2866 l255 -255 570 -3 c567 -3 571 -3 635 -26 88 -32 156 -78
223 -150 185 -201 184 -497 -3 -697 -69 -73 -130 -115 -215 -147 l-59 -23
-832 -3 -833 -3 0 -779 0 -780 260 0 260 0 0 519 0 520 608 3 c663 4 641 2
812 67 216 81 436 280 544 491 86 168 111 282 110 495 -1 138 -5 173 -26 255
-101 379 -408 676 -781 755 -57 13 -215 15 -925 15 l-857 0 254 -254z"/>
<path d="M28090 3105 c-202 -38 -403 -121 -572 -237 -196 -134 -420 -383 -526
-586 -225 -433 -229 -982 -8 -1420 124 -246 387 -522 632 -662 465 -266 1065
-266 1530 0 185 106 401 303 526 480 206 292 302 652 269 1013 -31 347 -141
612 -364 876 -215 254 -494 432 -805 513 -113 30 -125 31 -362 34 -180 2 -265
-1 -320 -11z m407 -506 c438 -49 798 -371 899 -804 28 -119 26 -358 -4 -478
-95 -380 -405 -689 -770 -767 -370 -78 -721 21 -978 276 -78 78 -169 208 -209
298 -126 285 -120 639 16 910 126 253 367 454 634 531 145 41 263 51 412 34z"/>
<path d="M30132 3112 c18 -44 258 -445 281 -469 l30 -32 571 -3 c551 -3 573
-4 633 -25 86 -29 151 -73 224 -151 221 -236 173 -597 -102 -781 -110 -74
-152 -81 -466 -81 -151 0 -273 -4 -271 -8 2 -5 205 -358 451 -785 l449 -777
299 0 300 0 -25 43 c-114 197 -616 1081 -614 1082 2 0 23 10 48 21 222 96 442
344 534 602 90 252 68 570 -54 812 -114 224 -347 431 -576 510 -142 50 -146
50 -955 50 -419 0 -759 -4 -757 -8z"/>
<path d="M33907 1565 c-427 -855 -777 -1557 -777 -1560 0 -3 130 -5 289 -5
l289 0 488 975 c269 536 491 975 494 974 3 0 106 -204 229 -454 l225 -455 292
0 293 0 -373 753 c-497 1003 -660 1327 -666 1327 -3 0 -355 -700 -783 -1555z"/>
<path d="M36580 1560 l0 -1560 260 0 260 0 2 1303 3 1302 518 3 517 2 0 255 0
255 -780 0 -780 0 0 -1560z"/>
<path d="M38580 1564 c0 -856 3 -1554 8 -1552 4 1 121 118 260 259 l252 255 0
1045 0 1045 -253 252 c-139 138 -256 252 -260 252 -4 0 -7 -700 -7 -1556z"/>
<path d="M40700 3105 c-202 -38 -403 -121 -572 -237 -196 -134 -420 -383 -526
-586 -225 -433 -229 -982 -8 -1420 124 -246 387 -522 632 -662 465 -266 1065
-266 1530 0 185 106 401 303 526 480 206 292 302 652 269 1013 -31 347 -141
612 -364 876 -215 254 -494 432 -805 513 -113 30 -125 31 -362 34 -180 2 -265
-1 -320 -11z m407 -506 c438 -49 798 -371 899 -804 28 -119 26 -358 -4 -478
-95 -380 -405 -689 -770 -767 -370 -78 -721 21 -978 276 -78 78 -169 208 -209
298 -126 285 -120 639 16 910 126 253 367 454 634 531 145 41 263 51 412 34z"/>
<path d="M43000 2731 l0 -389 1193 -1074 c655 -591 1240 -1119 1300 -1172
l107 -98 0 1561 0 1561 -260 0 -260 0 -2 -929 -3 -930 -1030 930 c-566 511
-1033 929 -1037 929 -5 0 -8 -175 -8 -389z"/>
<path d="M9410 1560 l0 -260 1040 0 1040 0 0 260 0 260 -1040 0 -1040 0 0
-260z"/>
<path d="M9670 284 c-180 -166 -256 -242 -258 -259 l-3 -25 1040 0 1041 0 0
260 0 260 -782 0 -783 0 -255 -236z"/>
<path d="M35540 260 l130 -260 290 0 290 0 -130 260 -130 260 -290 0 -290 0
130 -260z"/>
</g>
</svg>
